<?xml version="1.0" encoding="utf-8"?>
<svg xmlns="http://www.w3.org/2000/svg" version="1.1" width="1100" height="1400">

<line x1="0" y1="0" x2="1100" y2="0" stroke="lightgrey" />
<text x="5" y="-5" fill="lightgrey" >0</text>
<line x1="0" y1="100" x2="1100" y2="100" stroke="lightgrey" />
<text x="5" y="95" fill="lightgrey" >100</text>
<line x1="0" y1="200" x2="1100" y2="200" stroke="lightgrey" />
<text x="5" y="195" fill="lightgrey" >200</text>
<line x1="0" y1="300" x2="1100" y2="300" stroke="lightgrey" />
<text x="5" y="295" fill="lightgrey" >300</text>
<line x1="0" y1="400" x2="1100" y2="400" stroke="lightgrey" />
<text x="5" y="395" fill="lightgrey" >400</text>
<line x1="0" y1="500" x2="1100" y2="500" stroke="lightgrey" />
<text x="5" y="495" fill="lightgrey" >500</text>
<line x1="0" y1="600" x2="1100" y2="600" stroke="lightgrey" />
<text x="5" y="595" fill="lightgrey" >600</text>
<line x1="0" y1="700" x2="1100" y2="700" stroke="lightgrey" />
<text x="5" y="695" fill="lightgrey" >700</text>
<line x1="0" y1="800" x2="1100" y2="800" stroke="lightgrey" />
<text x="5" y="795" fill="lightgrey" >800</text>
<line x1="0" y1="900" x2="1100" y2="900" stroke="lightgrey" />
<text x="5" y="895" fill="lightgrey" >900</text>
<line x1="0" y1="1000" x2="1100" y2="1000" stroke="lightgrey" />
<text x="5" y="995" fill="lightgrey" >1000</text>
<line x1="0" y1="1100" x2="1100" y2="1100" stroke="lightgrey" />
<text x="5" y="1095" fill="lightgrey" >1100</text>
<line x1="0" y1="1200" x2="1100" y2="1200" stroke="lightgrey" />
<text x="5" y="1195" fill="lightgrey" >1200</text>
<line x1="0" y1="1300" x2="1100" y2="1300" stroke="lightgrey" />
<text x="5" y="1295" fill="lightgrey" >1300</text>
<line x1="0" y1="1400" x2="1100" y2="1400" stroke="lightgrey" />
<text x="5" y="1395" fill="lightgrey" >1400</text>
<line x1="0" y1="0" x2="0" y2="1400" stroke="lightgrey" />
<text x="5" y="15" fill="lightgrey" >0</text>
<line x1="100" y1="0" x2="100" y2="1400" stroke="lightgrey" />
<text x="105" y="15" fill="lightgrey" >100</text>
<line x1="200" y1="0" x2="200" y2="1400" stroke="lightgrey" />
<text x="205" y="15" fill="lightgrey" >200</text>
<line x1="300" y1="0" x2="300" y2="1400" stroke="lightgrey" />
<text x="305" y="15" fill="lightgrey" >300</text>
<line x1="400" y1="0" x2="400" y2="1400" stroke="lightgrey" />
<text x="405" y="15" fill="lightgrey" >400</text>
<line x1="500" y1="0" x2="500" y2="1400" stroke="lightgrey" />
<text x="505" y="15" fill="lightgrey" >500</text>
<line x1="600" y1="0" x2="600" y2="1400" stroke="lightgrey" />
<text x="605" y="15" fill="lightgrey" >600</text>
<line x1="700" y1="0" x2="700" y2="1400" stroke="lightgrey" />
<text x="705" y="15" fill="lightgrey" >700</text>
<line x1="800" y1="0" x2="800" y2="1400" stroke="lightgrey" />
<text x="805" y="15" fill="lightgrey" >800</text>
<line x1="900" y1="0" x2="900" y2="1400" stroke="lightgrey" />
<text x="905" y="15" fill="lightgrey" >900</text>
<line x1="1000" y1="0" x2="1000" y2="1400" stroke="lightgrey" />
<text x="1005" y="15" fill="lightgrey" >1000</text>
<line x1="1100" y1="0" x2="1100" y2="1400" stroke="lightgrey" />
<text x="1105" y="15" fill="lightgrey" >1100</text>
<line x1="500" y1="100" x2="600" y2="100" stroke="blue" />
<polygon points=" 600,100 588.913,104.592 588.913,95.4078" style="fill:blue" />
<line x1="600" y1="100" x2="900" y2="300" stroke="blue" />
<polygon points=" 900,300 888.228,297.671 893.323,290.029" style="fill:blue" />
<line x1="900" y1="300" x2="1000" y2="400" stroke="blue" />
<polygon points=" 1000,400 988.913,395.408 995.408,388.913" style="fill:blue" />
<line x1="1000" y1="400" x2="800" y2="1200" stroke="blue" />
<polygon points=" 800,1200 798.234,1188.13 807.144,1190.36" style="fill:blue" />
<line x1="600" y1="1000" x2="1000" y2="400" stroke="blue" />
<polygon points=" 1000,400 997.671,411.772 990.029,406.677" style="fill:blue" />
<line x1="800" y1="1200" x2="600" y2="1100" stroke="blue" />
<polygon points=" 600,1100 611.97,1100.85 607.862,1109.07" style="fill:blue" />
<line x1="600" y1="1100" x2="400" y2="1100" stroke="blue" />
<polygon points=" 400,1100 411.087,1095.41 411.087,1104.59" style="fill:blue" />
<line x1="400" y1="1100" x2="500" y2="900" stroke="blue" />
<polygon points=" 500,900 499.149,911.97 490.935,907.862" style="fill:blue" />
<line x1="400" y1="1100" x2="300" y2="1000" stroke="blue" />
<polygon points=" 300,1000 311.087,1004.59 304.592,1011.09" style="fill:blue" />
<line x1="300" y1="1000" x2="100" y2="700" stroke="blue" />
<polygon points=" 100,700 109.971,706.677 102.329,711.772" style="fill:blue" />
<line x1="100" y1="700" x2="100" y2="400" stroke="blue" />
<polygon points=" 100,400 104.592,411.087 95.4078,411.087" style="fill:blue" />
<line x1="100" y1="400" x2="200" y2="200" stroke="blue" />
<polygon points=" 200,200 199.149,211.97 190.935,207.862" style="fill:blue" />
<line x1="200" y1="200" x2="500" y2="100" stroke="blue" />
<polygon points=" 500,100 490.935,107.862 488.03,99.1493" style="fill:blue" />
<line x1="600" y1="1100" x2="600" y2="1000" stroke="blue" />
<polygon points=" 600,1000 604.592,1011.09 595.408,1011.09" style="fill:blue" />
<line x1="800" y1="1200" x2="600" y2="1000" stroke="blue" />
<polygon points=" 600,1000 611.087,1004.59 604.592,1011.09" style="fill:blue" />
<line x1="500" y1="100" x2="100" y2="400" stroke="blue" />
<polygon points=" 100,400 106.114,389.674 111.625,397.022" style="fill:blue" />
<line x1="500" y1="100" x2="100" y2="700" stroke="blue" />
<polygon points=" 100,700 102.329,688.228 109.971,693.323" style="fill:blue" />
<circle cx="500" cy="100" r="4" fill="rgb(255,75,75)" />
<text x="510" y="115" fill="black" >St-Denis</text>
<text x="485" y="90" fill="green" >0</text>
<circle cx="600" cy="100" r="4" fill="rgb(255,179,179)" />
<text x="610" y="115" fill="black" >Garros</text>
<text x="585" y="90" fill="green" >1</text>
<circle cx="900" cy="300" r="4" fill="rgb(255,179,179)" />
<text x="910" y="315" fill="black" >St-Andre</text>
<text x="885" y="290" fill="green" >2</text>
<circle cx="1000" cy="400" r="4" fill="rgb(255,88,88)" />
<text x="1010" y="415" fill="black" >St-Benoit</text>
<text x="985" y="390" fill="green" >3</text>
<circle cx="800" cy="1200" r="4" fill="rgb(255,88,88)" />
<text x="810" y="1215" fill="black" >St-Rose</text>
<text x="785" y="1190" fill="green" >4</text>
<circle cx="600" cy="1100" r="4" fill="rgb(255,88,88)" />
<text x="610" y="1115" fill="black" >St-Pierre</text>
<text x="585" y="1090" fill="green" >5</text>
<circle cx="600" cy="1000" r="4" fill="rgb(255,88,88)" />
<text x="610" y="1015" fill="black" >Universite</text>
<text x="585" y="990" fill="green" >6</text>
<circle cx="300" cy="1000" r="4" fill="rgb(255,179,179)" />
<text x="310" y="1015" fill="black" >St-Louis</text>
<text x="285" y="990" fill="green" >7</text>
<circle cx="500" cy="900" r="4" fill="rgb(255,231,231)" />
<text x="510" y="915" fill="black" >Eglise</text>
<text x="485" y="890" fill="green" >8</text>
<circle cx="100" cy="700" r="4" fill="rgb(255,88,88)" />
<text x="110" y="715" fill="black" >St-Leu</text>
<text x="85" y="690" fill="green" >9</text>
<circle cx="400" cy="1100" r="4" fill="rgb(255,88,88)" />
<text x="410" y="1115" fill="black" >Pierrefonds</text>
<text x="385" y="1090" fill="green" >10</text>
<circle cx="100" cy="400" r="4" fill="rgb(255,88,88)" />
<text x="110" y="415" fill="black" >St-Paul</text>
<text x="85" y="390" fill="green" >11</text>
<circle cx="200" cy="200" r="4" fill="rgb(255,179,179)" />
<text x="210" y="215" fill="black" >Leport</text>
<text x="185" y="190" fill="green" >12</text>


</svg>
